<?xml version="1.0" encoding="UTF-8" standalone="no"?>
<!DOCTYPE svg PUBLIC "-//W3C//DTD SVG 1.1//EN" "http://www.w3.org/Graphics/SVG/1.1/DTD/svg11.dtd">
<svg width="100%" height="100%" viewBox="0 0 125 110" version="1.1" xmlns="http://www.w3.org/2000/svg" xmlns:xlink="http://www.w3.org/1999/xlink" xml:space="preserve" xmlns:serif="http://www.serif.com/" style="fill-rule:evenodd;clip-rule:evenodd;stroke-linejoin:round;stroke-miterlimit:2;">
    <g transform="matrix(2.27909,0,0,2.27909,-0.019865,1.28786e-14)">
        <g transform="matrix(0.483812,0,0,0.483812,-42.1884,-102.52)">
            <path d="M154.53,257.26C154.53,257.26 154.829,309.529 154.84,311.48L130.09,311.44L130.09,269.85L87.2,292.61L87.2,272.32C125.42,251.91 162.18,232.31 200.4,211.9L200.4,233.07C185.11,241.13 169.82,249.2 154.53,257.26Z" style="fill:rgb(168,162,158);fill-rule:nonzero;"/>
        </g>
        <g transform="matrix(0.483812,0,0,0.483812,-42.1884,-102.52)">
            <path d="M122.14,244.92L122.14,234.49C134.21,227.98 146.73,221.16 160,213.99L160,224.31C147.38,231.18 134.76,238.05 122.14,244.91L122.14,244.92Z" style="fill:rgb(168,162,158);fill-rule:nonzero;"/>
        </g>
    </g>
    <g transform="matrix(2.25494,0,0,1.64289,-112.253,-36.7573)">
        <g transform="matrix(1.06204,0,0,1.11305,-4.25718,-1.13279)">
            <path d="M76.936,52.896C76.936,52.896 78.957,59.005 79.199,60.265C79.44,61.526 80.178,63.302 80.74,64.506C81.182,65.454 82.595,68.021 83.818,68.588C85.04,69.154 86.156,69.33 87.193,69.154C87.955,69.024 90.026,68.158 90.549,67.785C91.198,67.322 92.176,66.448 93.195,66.872C94.339,67.347 96.117,70.071 96.991,71.085C97.997,72.252 101.493,76.626 102.306,76.457C103.488,76.391 102.822,75.329 102.657,74.894C102.375,74.149 101.544,73.176 100.612,71.984C99.526,70.594 96.603,66.604 95.7,66.068C95.217,65.781 94.162,65.149 92.568,64.808C92.086,64.705 90.399,64.97 89.463,65.524C88.586,66.044 88.069,66.974 86.561,67.285C85.053,67.596 84.151,66.226 83.818,65.683C83.352,64.925 82.208,62.62 81.628,60.83C81.084,59.155 79.757,54.901 79.757,54.901C79.757,54.901 78.908,52.266 78.444,51.846C77.943,51.392 77.565,51.181 77.127,51.555C76.689,51.929 76.936,52.896 76.936,52.896Z" style="fill:rgb(16,185,129);"/>
        </g>
        <path d="M67.578,46.968C68.152,48.528 69.174,49.408 69.958,54.901C70.742,60.394 71.147,65.599 71.968,68.281C72.788,70.964 75.988,77.766 77.133,79.582C79.01,82.557 80.664,85.159 82.35,85.923C83.856,86.605 88.722,86.445 90.217,86.192C91.968,85.896 93.548,86.014 93.548,86.014C93.548,86.014 95.298,86.641 97,87.782C98.552,88.822 99.772,89.428 100.358,89.134C100.951,88.867 100.36,88.002 100.072,87.773C99.074,86.979 95.9,84.695 94.369,84.371C93.086,84.099 89.241,84.586 88.001,84.801C86.871,84.997 85.362,85.033 84.451,84.471C83.405,83.826 81.984,81.896 81.984,81.896C81.984,81.896 79.43,78.175 78.467,76.286C77.536,74.459 76.749,72.02 76.208,70.562C75.84,69.567 74.576,65.799 74.18,63.109C73.852,60.882 73.18,57.107 72.72,54.167C72.362,51.876 70.503,46.824 69.965,45.801C69.581,45.068 68.488,44.585 67.912,44.541C67.341,44.497 67.055,44.72 67.023,45.577C67.391,46.376 67.687,47.268 67.578,46.968Z" style="fill:rgb(16,185,129);"/>
    </g>
</svg>
